<svg width="300" height="300" xmlns="http://www.w3.org/2000/svg">
 <g id="Layer_1">
  <title>Layer 1</title>
  <g stroke="null">
   <path stroke="null" fill="#599636" d="m150.61259,6.77326l7.56744,14.21333c1.70135,2.62291 3.54447,4.94454 5.71546,7.10666a198.54352,198.54352 0 0 1 17.7578,20.07943c12.82212,16.83624 21.47063,35.53332 27.64687,55.75452c3.70397,12.35248 5.71546,25.02396 5.8661,37.83722c0.62028,38.30687 -12.51198,71.19955 -38.98918,98.53628a112.53694,112.53694 0 0 1 -13.91205,11.8917c-2.62291,0 -3.86347,-2.01149 -4.94454,-3.86347a31.80276,31.80276 0 0 1 -3.86347,-11.12078c-0.93042,-4.6344 -1.54184,-9.26879 -1.24056,-14.05383l0,-2.16213c-0.21267,-0.46078 -2.52544,-213.12902 -1.60387,-214.21894z"/>
   <path stroke="null" fill="#6cac48" d="m150.61259,6.30362c-0.31014,-0.62028 -0.62028,-0.15064 -0.93042,0.15064c0.15064,3.10141 -0.93042,5.8661 -2.62291,8.50673c-1.86085,2.62291 -4.32425,4.6344 -6.79652,6.79652c-13.73482,11.8917 -24.54546,26.25567 -33.20283,42.32098c-11.51953,21.62127 -17.45652,44.79325 -19.14014,69.18807c-0.77092,8.79915 2.78241,39.84871 5.55596,48.80736c7.56744,23.7834 21.16049,43.71218 38.76765,61.0092c4.32425,4.16475 8.94979,8.02823 13.73482,11.74106c1.3912,0 1.54184,-1.24056 1.86085,-2.16213a42.35642,42.35642 0 0 0 1.3912,-6.0256l3.10141,-23.16312l-1.71907,-217.16971z"/>
   <path stroke="null" fill="#c2bfbf" d="m158.18003,261.60298c0.31014,-3.54447 2.01149,-6.48638 3.86347,-9.41943c-1.86085,-0.77092 -3.24319,-2.30391 -4.32425,-4.01411a28.66591,28.66591 0 0 1 -2.30391,-5.09518c-2.16213,-6.48638 -2.62291,-13.29176 -3.24319,-19.91992l0,-4.01411c-0.77092,0.62028 -0.93042,5.8661 -0.93042,6.64588a153.91864,153.91864 0 0 1 -2.78241,20.85035c-0.46078,2.78241 -0.77092,5.55596 -2.48113,8.02823c0,0.31014 0,0.62028 0.15064,1.08106c2.78241,8.18773 3.54447,16.52609 4.01411,25.02396l0,3.10141c0,3.70397 -0.15064,2.92419 2.92419,4.16475c1.24056,0.46078 2.62291,0.62028 3.86347,1.54184c0.93042,0 1.08106,-0.77092 1.08106,-1.3912l-0.46078,-5.09518l0,-14.21333c-0.15064,-2.48113 0.31014,-4.94454 0.62028,-7.26616l0.00886,-0.00886z"/>
  </g>
  <text opacity="0.99" font-weight="bold" xml:space="preserve" text-anchor="start" font-family="'Asap'" font-size="64" id="svg_1" y="270.5" x="200" stroke-width="0" stroke="#000" fill="#edb10e">V2</text>
 </g>

</svg>